<svg viewBox="0 0 300 300" xmlns="http://www.w3.org/2000/svg" xmlns:xlink="http://www.w3.org/1999/xlink" style="width: 100%; height: 100%; background-color: transparent;"><svg fill="#000000" xmlns="http://www.w3.org/2000/svg" width="300" height="300" viewBox="0 0 300 300"><path d="M250.85,223.31H53.06a12,12,0,0,1-12-12V13.51a12,12,0,0,1,12-12H250.92a12,12,0,0,1,12,12V211.38A12.13,12.13,0,0,1,250.85,223.31ZM53.06,4a9.55,9.55,0,0,0-9.54,9.53V211.3a9.55,9.55,0,0,0,9.54,9.54H250.85a9.64,9.64,0,0,0,9.61-9.47V13.51A9.55,9.55,0,0,0,250.92,4Z"/><g transform="translate(48.5, 9)scale(0.69)" fill="none"><svg width="300" height="300"><style>.background-color{ fill: transparent; }.dot-color{ fill: #000000; }.corners-square-color-0-0{ fill: #000000; }.corners-dot-color-0-0{ fill: #000000; }.corners-square-color-1-0{ fill: #000000; }.corners-dot-color-1-0{ fill: #000000; }.corners-square-color-0-1{ fill: #000000; }.corners-dot-color-0-1{ fill: #000000; }</style><defs/><g class="dot-color"><circle cx="10" cy="90" r="5" transform="rotate(0,10,90)"/><circle cx="10" cy="120" r="5" transform="rotate(0,10,120)"/><circle cx="10" cy="140" r="5" transform="rotate(0,10,140)"/><path d="M 5 175v 10h 5a 5 5, 0, 0, 0, 0 -10" transform="rotate(-90,10,180)"/><path d="M 5 185v 10h 5a 5 5, 0, 0, 0, 0 -10" transform="rotate(90,10,190)"/><circle cx="10" cy="210" r="5" transform="rotate(0,10,210)"/><path d="M 15 95v 10h 5a 5 5, 0, 0, 0, 0 -10" transform="rotate(180,20,100)"/><path d="M 15 155v 10h 5a 5 5, 0, 0, 0, 0 -10" transform="rotate(-90,20,160)"/><path d="M 15 165v 10h 5a 5 5, 0, 0, 0, 0 -10" transform="rotate(90,20,170)"/><path d="M 15 195v 10h 5a 5 5, 0, 0, 0, 0 -10" transform="rotate(180,20,200)"/><path d="M 25 95v 10h 5a 5 5, 0, 0, 0, 0 -10" transform="rotate(0,30,100)"/><path d="M 25 115v 10h 5a 5 5, 0, 0, 0, 0 -10" transform="rotate(180,30,120)"/><rect x="25" y="195" width="10" height="10" transform="rotate(0,30,200)"/><path d="M 25 205v 10h 5a 5 5, 0, 0, 0, 0 -10" transform="rotate(90,30,210)"/><path d="M 35 105v 10h 10v -5a 5 5, 0, 0, 0, -5 -5" transform="rotate(-90,40,110)"/><rect x="35" y="115" width="10" height="10" transform="rotate(0,40,120)"/><path d="M 35 125v 10h 5a 5 5, 0, 0, 0, 0 -10" transform="rotate(90,40,130)"/><path d="M 35 155v 10h 10v -5a 5 5, 0, 0, 0, -5 -5" transform="rotate(-90,40,160)"/><rect x="35" y="165" width="10" height="10" transform="rotate(0,40,170)"/><path d="M 35 175v 10h 5a 5 5, 0, 0, 0, 0 -10" transform="rotate(90,40,180)"/><rect x="35" y="195" width="10" height="10" transform="rotate(0,40,200)"/><path d="M 45 85v 10h 10v -5a 5 5, 0, 0, 0, -5 -5" transform="rotate(-90,50,90)"/><rect x="45" y="95" width="10" height="10" transform="rotate(0,50,100)"/><path d="M 45 105v 10h 10v -5a 5 5, 0, 0, 0, -5 -5" transform="rotate(90,50,110)"/><path d="M 45 145v 10h 5a 5 5, 0, 0, 0, 0 -10" transform="rotate(-90,50,150)"/><rect x="45" y="155" width="10" height="10" transform="rotate(0,50,160)"/><rect x="45" y="165" width="10" height="10" transform="rotate(0,50,170)"/><path d="M 45 195v 10h 5a 5 5, 0, 0, 0, 0 -10" transform="rotate(0,50,200)"/><rect x="55" y="85" width="10" height="10" transform="rotate(0,60,90)"/><path d="M 55 125v 10h 10v -5a 5 5, 0, 0, 0, -5 -5" transform="rotate(-90,60,130)"/><path d="M 55 135v 10h 5a 5 5, 0, 0, 0, 0 -10" transform="rotate(90,60,140)"/><path d="M 55 155v 10h 10v -5a 5 5, 0, 0, 0, -5 -5" transform="rotate(0,60,160)"/><rect x="55" y="165" width="10" height="10" transform="rotate(0,60,170)"/><path d="M 55 185v 10h 5a 5 5, 0, 0, 0, 0 -10" transform="rotate(180,60,190)"/><path d="M 55 205v 10h 5a 5 5, 0, 0, 0, 0 -10" transform="rotate(180,60,210)"/><path d="M 65 85v 10h 5a 5 5, 0, 0, 0, 0 -10" transform="rotate(0,70,90)"/><path d="M 65 105v 10h 5a 5 5, 0, 0, 0, 0 -10" transform="rotate(180,70,110)"/><path d="M 65 125v 10h 5a 5 5, 0, 0, 0, 0 -10" transform="rotate(0,70,130)"/><circle cx="70" cy="150" r="5" transform="rotate(0,70,150)"/><rect x="65" y="165" width="10" height="10" transform="rotate(0,70,170)"/><path d="M 65 185v 10h 5a 5 5, 0, 0, 0, 0 -10" transform="rotate(0,70,190)"/><rect x="65" y="205" width="10" height="10" transform="rotate(0,70,210)"/><path d="M 75 105v 10h 10v -5a 5 5, 0, 0, 0, -5 -5" transform="rotate(0,80,110)"/><path d="M 75 115v 10h 5a 5 5, 0, 0, 0, 0 -10" transform="rotate(90,80,120)"/><circle cx="80" cy="140" r="5" transform="rotate(0,80,140)"/><path d="M 75 165v 10h 5a 5 5, 0, 0, 0, 0 -10" transform="rotate(0,80,170)"/><path d="M 75 205v 10h 5a 5 5, 0, 0, 0, 0 -10" transform="rotate(0,80,210)"/><path d="M 85 15v 10h 5a 5 5, 0, 0, 0, 0 -10" transform="rotate(-90,90,20)"/><rect x="85" y="25" width="10" height="10" transform="rotate(0,90,30)"/><rect x="85" y="35" width="10" height="10" transform="rotate(0,90,40)"/><rect x="85" y="45" width="10" height="10" transform="rotate(0,90,50)"/><rect x="85" y="55" width="10" height="10" transform="rotate(0,90,60)"/><rect x="85" y="65" width="10" height="10" transform="rotate(0,90,70)"/><path d="M 85 75v 10h 5a 5 5, 0, 0, 0, 0 -10" transform="rotate(90,90,80)"/><circle cx="90" cy="100" r="5" transform="rotate(0,90,100)"/><path d="M 85 125v 10h 5a 5 5, 0, 0, 0, 0 -10" transform="rotate(180,90,130)"/><path d="M 85 145v 10h 10v -5a 5 5, 0, 0, 0, -5 -5" transform="rotate(-90,90,150)"/><path d="M 85 155v 10h 5a 5 5, 0, 0, 0, 0 -10" transform="rotate(90,90,160)"/><circle cx="90" cy="190" r="5" transform="rotate(0,90,190)"/><path d="M 85 235v 10h 10v -5a 5 5, 0, 0, 0, -5 -5" transform="rotate(-90,90,240)"/><path d="M 85 245v 10h 10v -5a 5 5, 0, 0, 0, -5 -5" transform="rotate(180,90,250)"/><path d="M 85 285v 10h 5a 5 5, 0, 0, 0, 0 -10" transform="rotate(180,90,290)"/><rect x="95" y="25" width="10" height="10" transform="rotate(0,100,30)"/><path d="M 95 45v 10h 10v -5a 5 5, 0, 0, 0, -5 -5" transform="rotate(0,100,50)"/><rect x="95" y="55" width="10" height="10" transform="rotate(0,100,60)"/><path d="M 95 85v 10h 5a 5 5, 0, 0, 0, 0 -10" transform="rotate(180,100,90)"/><path d="M 95 105v 10h 10v -5a 5 5, 0, 0, 0, -5 -5" transform="rotate(-90,100,110)"/><rect x="95" y="115" width="10" height="10" transform="rotate(0,100,120)"/><rect x="95" y="125" width="10" height="10" transform="rotate(0,100,130)"/><rect x="95" y="145" width="10" height="10" transform="rotate(0,100,150)"/><path d="M 95 165v 10h 5a 5 5, 0, 0, 0, 0 -10" transform="rotate(180,100,170)"/><path d="M 95 215v 10h 5a 5 5, 0, 0, 0, 0 -10" transform="rotate(180,100,220)"/><path d="M 95 235v 10h 10v -5a 5 5, 0, 0, 0, -5 -5" transform="rotate(0,100,240)"/><rect x="95" y="245" width="10" height="10" transform="rotate(0,100,250)"/><rect x="95" y="255" width="10" height="10" transform="rotate(0,100,260)"/><path d="M 95 265v 10h 10v -5a 5 5, 0, 0, 0, -5 -5" transform="rotate(180,100,270)"/><path d="M 95 285v 10h 5a 5 5, 0, 0, 0, 0 -10" transform="rotate(0,100,290)"/><path d="M 105 15v 10h 10v -5a 5 5, 0, 0, 0, -5 -5" transform="rotate(-90,110,20)"/><rect x="105" y="25" width="10" height="10" transform="rotate(0,110,30)"/><path d="M 105 55v 10h 10v -5a 5 5, 0, 0, 0, -5 -5" transform="rotate(0,110,60)"/><rect x="105" y="65" width="10" height="10" transform="rotate(0,110,70)"/><rect x="105" y="75" width="10" height="10" transform="rotate(0,110,80)"/><rect x="105" y="85" width="10" height="10" transform="rotate(0,110,90)"/><rect x="105" y="95" width="10" height="10" transform="rotate(0,110,100)"/><rect x="105" y="105" width="10" height="10" transform="rotate(0,110,110)"/><path d="M 105 125v 10h 10v -5a 5 5, 0, 0, 0, -5 -5" transform="rotate(0,110,130)"/><rect x="105" y="135" width="10" height="10" transform="rotate(0,110,140)"/><rect x="105" y="145" width="10" height="10" transform="rotate(0,110,150)"/><rect x="105" y="155" width="10" height="10" transform="rotate(0,110,160)"/><path d="M 105 165v 10h 10v -5a 5 5, 0, 0, 0, -5 -5" transform="rotate(90,110,170)"/><circle cx="110" cy="190" r="5" transform="rotate(0,110,190)"/><path d="M 105 205v 10h 5a 5 5, 0, 0, 0, 0 -10" transform="rotate(-90,110,210)"/><rect x="105" y="215" width="10" height="10" transform="rotate(0,110,220)"/><path d="M 105 225v 10h 10v -5a 5 5, 0, 0, 0, -5 -5" transform="rotate(180,110,230)"/><rect x="105" y="255" width="10" height="10" transform="rotate(0,110,260)"/><path d="M 105 265v 10h 10v -5a 5 5, 0, 0, 0, -5 -5" transform="rotate(90,110,270)"/><path d="M 115 5v 10h 5a 5 5, 0, 0, 0, 0 -10" transform="rotate(-90,120,10)"/><rect x="115" y="15" width="10" height="10" transform="rotate(0,120,20)"/><path d="M 115 25v 10h 10v -5a 5 5, 0, 0, 0, -5 -5" transform="rotate(90,120,30)"/><path d="M 115 85v 10h 10v -5a 5 5, 0, 0, 0, -5 -5" transform="rotate(0,120,90)"/><rect x="115" y="95" width="10" height="10" transform="rotate(0,120,100)"/><path d="M 115 105v 10h 10v -5a 5 5, 0, 0, 0, -5 -5" transform="rotate(90,120,110)"/><path d="M 115 135v 10h 5a 5 5, 0, 0, 0, 0 -10" transform="rotate(0,120,140)"/><circle cx="120" cy="200" r="5" transform="rotate(0,120,200)"/><rect x="115" y="215" width="10" height="10" transform="rotate(0,120,220)"/><path d="M 115 225v 10h 10v -5a 5 5, 0, 0, 0, -5 -5" transform="rotate(90,120,230)"/><path d="M 115 245v 10h 5a 5 5, 0, 0, 0, 0 -10" transform="rotate(-90,120,250)"/><rect x="115" y="255" width="10" height="10" transform="rotate(0,120,260)"/><path d="M 115 275v 10h 5a 5 5, 0, 0, 0, 0 -10" transform="rotate(180,120,280)"/><path d="M 125 15v 10h 5a 5 5, 0, 0, 0, 0 -10" transform="rotate(0,130,20)"/><path d="M 125 35v 10h 10v -5a 5 5, 0, 0, 0, -5 -5" transform="rotate(-90,130,40)"/><path d="M 125 45v 10h 10v -5a 5 5, 0, 0, 0, -5 -5" transform="rotate(180,130,50)"/><path d="M 125 65v 10h 5a 5 5, 0, 0, 0, 0 -10" transform="rotate(-90,130,70)"/><path d="M 125 75v 10h 5a 5 5, 0, 0, 0, 0 -10" transform="rotate(90,130,80)"/><rect x="125" y="95" width="10" height="10" transform="rotate(0,130,100)"/><circle cx="130" cy="120" r="5" transform="rotate(0,130,120)"/><path d="M 125 155v 10h 10v -5a 5 5, 0, 0, 0, -5 -5" transform="rotate(-90,130,160)"/><rect x="125" y="165" width="10" height="10" transform="rotate(0,130,170)"/><path d="M 125 175v 10h 10v -5a 5 5, 0, 0, 0, -5 -5" transform="rotate(180,130,180)"/><rect x="125" y="215" width="10" height="10" transform="rotate(0,130,220)"/><circle cx="130" cy="240" r="5" transform="rotate(0,130,240)"/><rect x="125" y="255" width="10" height="10" transform="rotate(0,130,260)"/><rect x="125" y="275" width="10" height="10" transform="rotate(0,130,280)"/><path d="M 125 285v 10h 10v -5a 5 5, 0, 0, 0, -5 -5" transform="rotate(180,130,290)"/><circle cx="140" cy="10" r="5" transform="rotate(0,140,10)"/><path d="M 135 25v 10h 10v -5a 5 5, 0, 0, 0, -5 -5" transform="rotate(-90,140,30)"/><rect x="135" y="35" width="10" height="10" transform="rotate(0,140,40)"/><rect x="135" y="45" width="10" height="10" transform="rotate(0,140,50)"/><path d="M 135 55v 10h 10v -5a 5 5, 0, 0, 0, -5 -5" transform="rotate(180,140,60)"/><rect x="135" y="95" width="10" height="10" transform="rotate(0,140,100)"/><path d="M 135 135v 10h 5a 5 5, 0, 0, 0, 0 -10" transform="rotate(-90,140,140)"/><rect x="135" y="145" width="10" height="10" transform="rotate(0,140,150)"/><rect x="135" y="155" width="10" height="10" transform="rotate(0,140,160)"/><rect x="135" y="165" width="10" height="10" transform="rotate(0,140,170)"/><rect x="135" y="175" width="10" height="10" transform="rotate(0,140,180)"/><path d="M 135 195v 10h 5a 5 5, 0, 0, 0, 0 -10" transform="rotate(-90,140,200)"/><rect x="135" y="205" width="10" height="10" transform="rotate(0,140,210)"/><rect x="135" y="215" width="10" height="10" transform="rotate(0,140,220)"/><path d="M 135 225v 10h 5a 5 5, 0, 0, 0, 0 -10" transform="rotate(90,140,230)"/><path d="M 135 245v 10h 5a 5 5, 0, 0, 0, 0 -10" transform="rotate(-90,140,250)"/><path d="M 135 255v 10h 10v -5a 5 5, 0, 0, 0, -5 -5" transform="rotate(90,140,260)"/><rect x="135" y="275" width="10" height="10" transform="rotate(0,140,280)"/><path d="M 135 285v 10h 10v -5a 5 5, 0, 0, 0, -5 -5" transform="rotate(90,140,290)"/><path d="M 145 25v 10h 5a 5 5, 0, 0, 0, 0 -10" transform="rotate(0,150,30)"/><rect x="145" y="55" width="10" height="10" transform="rotate(0,150,60)"/><rect x="145" y="65" width="10" height="10" transform="rotate(0,150,70)"/><rect x="145" y="75" width="10" height="10" transform="rotate(0,150,80)"/><rect x="145" y="85" width="10" height="10" transform="rotate(0,150,90)"/><rect x="145" y="95" width="10" height="10" transform="rotate(0,150,100)"/><rect x="145" y="105" width="10" height="10" transform="rotate(0,150,110)"/><rect x="145" y="115" width="10" height="10" transform="rotate(0,150,120)"/><path d="M 145 125v 10h 10v -5a 5 5, 0, 0, 0, -5 -5" transform="rotate(180,150,130)"/><path d="M 145 155v 10h 5a 5 5, 0, 0, 0, 0 -10" transform="rotate(0,150,160)"/><rect x="145" y="175" width="10" height="10" transform="rotate(0,150,180)"/><rect x="145" y="205" width="10" height="10" transform="rotate(0,150,210)"/><path d="M 145 215v 10h 10v -5a 5 5, 0, 0, 0, -5 -5" transform="rotate(90,150,220)"/><circle cx="150" cy="240" r="5" transform="rotate(0,150,240)"/><path d="M 145 275v 10h 5a 5 5, 0, 0, 0, 0 -10" transform="rotate(0,150,280)"/><path d="M 155 5v 10h 10v -5a 5 5, 0, 0, 0, -5 -5" transform="rotate(-90,160,10)"/><path d="M 155 15v 10h 10v -5a 5 5, 0, 0, 0, -5 -5" transform="rotate(180,160,20)"/><rect x="155" y="55" width="10" height="10" transform="rotate(0,160,60)"/><rect x="155" y="75" width="10" height="10" transform="rotate(0,160,80)"/><rect x="155" y="85" width="10" height="10" transform="rotate(0,160,90)"/><rect x="155" y="95" width="10" height="10" transform="rotate(0,160,100)"/><rect x="155" y="105" width="10" height="10" transform="rotate(0,160,110)"/><path d="M 155 125v 10h 5a 5 5, 0, 0, 0, 0 -10" transform="rotate(0,160,130)"/><path d="M 155 175v 10h 10v -5a 5 5, 0, 0, 0, -5 -5" transform="rotate(0,160,180)"/><path d="M 155 185v 10h 5a 5 5, 0, 0, 0, 0 -10" transform="rotate(90,160,190)"/><rect x="155" y="205" width="10" height="10" transform="rotate(0,160,210)"/><circle cx="160" cy="230" r="5" transform="rotate(0,160,230)"/><path d="M 155 245v 10h 5a 5 5, 0, 0, 0, 0 -10" transform="rotate(-90,160,250)"/><path d="M 155 255v 10h 10v -5a 5 5, 0, 0, 0, -5 -5" transform="rotate(180,160,260)"/><rect x="165" y="5" width="10" height="10" transform="rotate(0,170,10)"/><rect x="165" y="15" width="10" height="10" transform="rotate(0,170,20)"/><path d="M 165 55v 10h 10v -5a 5 5, 0, 0, 0, -5 -5" transform="rotate(0,170,60)"/><rect x="165" y="65" width="10" height="10" transform="rotate(0,170,70)"/><rect x="165" y="75" width="10" height="10" transform="rotate(0,170,80)"/><rect x="165" y="95" width="10" height="10" transform="rotate(0,170,100)"/><rect x="165" y="105" width="10" height="10" transform="rotate(0,170,110)"/><path d="M 165 115v 10h 10v -5a 5 5, 0, 0, 0, -5 -5" transform="rotate(180,170,120)"/><path d="M 165 145v 10h 5a 5 5, 0, 0, 0, 0 -10" transform="rotate(180,170,150)"/><circle cx="170" cy="170" r="5" transform="rotate(0,170,170)"/><path d="M 165 195v 10h 10v -5a 5 5, 0, 0, 0, -5 -5" transform="rotate(-90,170,200)"/><path d="M 165 205v 10h 10v -5a 5 5, 0, 0, 0, -5 -5" transform="rotate(90,170,210)"/><circle cx="170" cy="240" r="5" transform="rotate(0,170,240)"/><rect x="165" y="255" width="10" height="10" transform="rotate(0,170,260)"/><path d="M 165 265v 10h 5a 5 5, 0, 0, 0, 0 -10" transform="rotate(90,170,270)"/><path d="M 165 285v 10h 5a 5 5, 0, 0, 0, 0 -10" transform="rotate(180,170,290)"/><rect x="175" y="5" width="10" height="10" transform="rotate(0,180,10)"/><path d="M 175 15v 10h 10v -5a 5 5, 0, 0, 0, -5 -5" transform="rotate(90,180,20)"/><path d="M 175 35v 10h 10v -5a 5 5, 0, 0, 0, -5 -5" transform="rotate(-90,180,40)"/><path d="M 175 45v 10h 5a 5 5, 0, 0, 0, 0 -10" transform="rotate(90,180,50)"/><path d="M 175 75v 10h 5a 5 5, 0, 0, 0, 0 -10" transform="rotate(0,180,80)"/><path d="M 175 95v 10h 10v -5a 5 5, 0, 0, 0, -5 -5" transform="rotate(0,180,100)"/><rect x="175" y="105" width="10" height="10" transform="rotate(0,180,110)"/><rect x="175" y="115" width="10" height="10" transform="rotate(0,180,120)"/><path d="M 175 125v 10h 10v -5a 5 5, 0, 0, 0, -5 -5" transform="rotate(180,180,130)"/><path d="M 175 145v 10h 10v -5a 5 5, 0, 0, 0, -5 -5" transform="rotate(0,180,150)"/><path d="M 175 155v 10h 10v -5a 5 5, 0, 0, 0, -5 -5" transform="rotate(180,180,160)"/><path d="M 175 185v 10h 10v -5a 5 5, 0, 0, 0, -5 -5" transform="rotate(-90,180,190)"/><path d="M 175 195v 10h 10v -5a 5 5, 0, 0, 0, -5 -5" transform="rotate(90,180,200)"/><path d="M 175 225v 10h 5a 5 5, 0, 0, 0, 0 -10" transform="rotate(180,180,230)"/><path d="M 175 245v 10h 10v -5a 5 5, 0, 0, 0, -5 -5" transform="rotate(-90,180,250)"/><rect x="175" y="255" width="10" height="10" transform="rotate(0,180,260)"/><path d="M 175 275v 10h 5a 5 5, 0, 0, 0, 0 -10" transform="rotate(-90,180,280)"/><path d="M 175 285v 10h 10v -5a 5 5, 0, 0, 0, -5 -5" transform="rotate(90,180,290)"/><rect x="185" y="5" width="10" height="10" transform="rotate(0,190,10)"/><path d="M 185 35v 10h 5a 5 5, 0, 0, 0, 0 -10" transform="rotate(0,190,40)"/><circle cx="190" cy="70" r="5" transform="rotate(0,190,70)"/><circle cx="190" cy="90" r="5" transform="rotate(0,190,90)"/><rect x="185" y="105" width="10" height="10" transform="rotate(0,190,110)"/><rect x="185" y="115" width="10" height="10" transform="rotate(0,190,120)"/><rect x="185" y="125" width="10" height="10" transform="rotate(0,190,130)"/><path d="M 185 135v 10h 10v -5a 5 5, 0, 0, 0, -5 -5" transform="rotate(180,190,140)"/><rect x="185" y="155" width="10" height="10" transform="rotate(0,190,160)"/><rect x="185" y="165" width="10" height="10" transform="rotate(0,190,170)"/><rect x="185" y="175" width="10" height="10" transform="rotate(0,190,180)"/><rect x="185" y="185" width="10" height="10" transform="rotate(0,190,190)"/><rect x="185" y="225" width="10" height="10" transform="rotate(0,190,230)"/><rect x="185" y="245" width="10" height="10" transform="rotate(0,190,250)"/><rect x="185" y="255" width="10" height="10" transform="rotate(0,190,260)"/><path d="M 185 265v 10h 5a 5 5, 0, 0, 0, 0 -10" transform="rotate(90,190,270)"/><rect x="195" y="5" width="10" height="10" transform="rotate(0,200,10)"/><circle cx="200" cy="30" r="5" transform="rotate(0,200,30)"/><path d="M 195 55v 10h 5a 5 5, 0, 0, 0, 0 -10" transform="rotate(180,200,60)"/><rect x="195" y="105" width="10" height="10" transform="rotate(0,200,110)"/><path d="M 195 135v 10h 5a 5 5, 0, 0, 0, 0 -10" transform="rotate(0,200,140)"/><rect x="195" y="155" width="10" height="10" transform="rotate(0,200,160)"/><rect x="195" y="185" width="10" height="10" transform="rotate(0,200,190)"/><rect x="195" y="195" width="10" height="10" transform="rotate(0,200,200)"/><path d="M 195 205v 10h 10v -5a 5 5, 0, 0, 0, -5 -5" transform="rotate(180,200,210)"/><rect x="195" y="225" width="10" height="10" transform="rotate(0,200,230)"/><rect x="195" y="235" width="10" height="10" transform="rotate(0,200,240)"/><rect x="195" y="245" width="10" height="10" transform="rotate(0,200,250)"/><rect x="195" y="255" width="10" height="10" transform="rotate(0,200,260)"/><path d="M 195 275v 10h 10v -5a 5 5, 0, 0, 0, -5 -5" transform="rotate(-90,200,280)"/><path d="M 195 285v 10h 10v -5a 5 5, 0, 0, 0, -5 -5" transform="rotate(180,200,290)"/><path d="M 205 5v 10h 5a 5 5, 0, 0, 0, 0 -10" transform="rotate(0,210,10)"/><path d="M 205 35v 10h 5a 5 5, 0, 0, 0, 0 -10" transform="rotate(-90,210,40)"/><rect x="205" y="45" width="10" height="10" transform="rotate(0,210,50)"/><rect x="205" y="55" width="10" height="10" transform="rotate(0,210,60)"/><rect x="205" y="65" width="10" height="10" transform="rotate(0,210,70)"/><rect x="205" y="75" width="10" height="10" transform="rotate(0,210,80)"/><rect x="205" y="85" width="10" height="10" transform="rotate(0,210,90)"/><rect x="205" y="95" width="10" height="10" transform="rotate(0,210,100)"/><rect x="205" y="105" width="10" height="10" transform="rotate(0,210,110)"/><path d="M 205 125v 10h 5a 5 5, 0, 0, 0, 0 -10" transform="rotate(180,210,130)"/><path d="M 205 145v 10h 5a 5 5, 0, 0, 0, 0 -10" transform="rotate(-90,210,150)"/><path d="M 205 155v 10h 10v -5a 5 5, 0, 0, 0, -5 -5" transform="rotate(90,210,160)"/><path d="M 205 175v 10h 5a 5 5, 0, 0, 0, 0 -10" transform="rotate(-90,210,180)"/><rect x="205" y="185" width="10" height="10" transform="rotate(0,210,190)"/><rect x="205" y="195" width="10" height="10" transform="rotate(0,210,200)"/><rect x="205" y="205" width="10" height="10" transform="rotate(0,210,210)"/><rect x="205" y="215" width="10" height="10" transform="rotate(0,210,220)"/><rect x="205" y="225" width="10" height="10" transform="rotate(0,210,230)"/><rect x="205" y="235" width="10" height="10" transform="rotate(0,210,240)"/><rect x="205" y="245" width="10" height="10" transform="rotate(0,210,250)"/><rect x="205" y="255" width="10" height="10" transform="rotate(0,210,260)"/><rect x="205" y="275" width="10" height="10" transform="rotate(0,210,280)"/><rect x="205" y="285" width="10" height="10" transform="rotate(0,210,290)"/><rect x="215" y="85" width="10" height="10" transform="rotate(0,220,90)"/><path d="M 215 105v 10h 5a 5 5, 0, 0, 0, 0 -10" transform="rotate(0,220,110)"/><path d="M 215 125v 10h 10v -5a 5 5, 0, 0, 0, -5 -5" transform="rotate(0,220,130)"/><path d="M 215 135v 10h 10v -5a 5 5, 0, 0, 0, -5 -5" transform="rotate(180,220,140)"/><path d="M 215 165v 10h 5a 5 5, 0, 0, 0, 0 -10" transform="rotate(180,220,170)"/><rect x="215" y="185" width="10" height="10" transform="rotate(0,220,190)"/><rect x="215" y="205" width="10" height="10" transform="rotate(0,220,210)"/><rect x="215" y="245" width="10" height="10" transform="rotate(0,220,250)"/><path d="M 215 255v 10h 10v -5a 5 5, 0, 0, 0, -5 -5" transform="rotate(90,220,260)"/><path d="M 215 275v 10h 10v -5a 5 5, 0, 0, 0, -5 -5" transform="rotate(0,220,280)"/><path d="M 215 285v 10h 10v -5a 5 5, 0, 0, 0, -5 -5" transform="rotate(90,220,290)"/><rect x="225" y="85" width="10" height="10" transform="rotate(0,230,90)"/><path d="M 225 135v 10h 5a 5 5, 0, 0, 0, 0 -10" transform="rotate(0,230,140)"/><path d="M 225 155v 10h 5a 5 5, 0, 0, 0, 0 -10" transform="rotate(-90,230,160)"/><path d="M 225 165v 10h 10v -5a 5 5, 0, 0, 0, -5 -5" transform="rotate(90,230,170)"/><path d="M 225 185v 10h 10v -5a 5 5, 0, 0, 0, -5 -5" transform="rotate(0,230,190)"/><rect x="225" y="195" width="10" height="10" transform="rotate(0,230,200)"/><rect x="225" y="205" width="10" height="10" transform="rotate(0,230,210)"/><circle cx="230" cy="230" r="5" transform="rotate(0,230,230)"/><rect x="225" y="245" width="10" height="10" transform="rotate(0,230,250)"/><rect x="235" y="85" width="10" height="10" transform="rotate(0,240,90)"/><circle cx="240" cy="110" r="5" transform="rotate(0,240,110)"/><path d="M 235 145v 10h 5a 5 5, 0, 0, 0, 0 -10" transform="rotate(180,240,150)"/><path d="M 235 195v 10h 10v -5a 5 5, 0, 0, 0, -5 -5" transform="rotate(0,240,200)"/><rect x="235" y="205" width="10" height="10" transform="rotate(0,240,210)"/><rect x="235" y="245" width="10" height="10" transform="rotate(0,240,250)"/><path d="M 235 255v 10h 10v -5a 5 5, 0, 0, 0, -5 -5" transform="rotate(180,240,260)"/><path d="M 235 285v 10h 5a 5 5, 0, 0, 0, 0 -10" transform="rotate(180,240,290)"/><rect x="245" y="85" width="10" height="10" transform="rotate(0,250,90)"/><path d="M 245 95v 10h 10v -5a 5 5, 0, 0, 0, -5 -5" transform="rotate(180,250,100)"/><path d="M 245 115v 10h 5a 5 5, 0, 0, 0, 0 -10" transform="rotate(180,250,120)"/><path d="M 245 145v 10h 10v -5a 5 5, 0, 0, 0, -5 -5" transform="rotate(0,250,150)"/><path d="M 245 155v 10h 10v -5a 5 5, 0, 0, 0, -5 -5" transform="rotate(180,250,160)"/><circle cx="250" cy="190" r="5" transform="rotate(0,250,190)"/><rect x="245" y="205" width="10" height="10" transform="rotate(0,250,210)"/><rect x="245" y="215" width="10" height="10" transform="rotate(0,250,220)"/><rect x="245" y="225" width="10" height="10" transform="rotate(0,250,230)"/><rect x="245" y="235" width="10" height="10" transform="rotate(0,250,240)"/><rect x="245" y="245" width="10" height="10" transform="rotate(0,250,250)"/><rect x="245" y="255" width="10" height="10" transform="rotate(0,250,260)"/><path d="M 245 265v 10h 5a 5 5, 0, 0, 0, 0 -10" transform="rotate(90,250,270)"/><path d="M 245 285v 10h 5a 5 5, 0, 0, 0, 0 -10" transform="rotate(0,250,290)"/><rect x="255" y="85" width="10" height="10" transform="rotate(0,260,90)"/><path d="M 255 95v 10h 10v -5a 5 5, 0, 0, 0, -5 -5" transform="rotate(90,260,100)"/><rect x="255" y="115" width="10" height="10" transform="rotate(0,260,120)"/><path d="M 255 125v 10h 10v -5a 5 5, 0, 0, 0, -5 -5" transform="rotate(180,260,130)"/><path d="M 255 155v 10h 10v -5a 5 5, 0, 0, 0, -5 -5" transform="rotate(0,260,160)"/><rect x="255" y="165" width="10" height="10" transform="rotate(0,260,170)"/><path d="M 255 175v 10h 10v -5a 5 5, 0, 0, 0, -5 -5" transform="rotate(180,260,180)"/><path d="M 255 195v 10h 10v -5a 5 5, 0, 0, 0, -5 -5" transform="rotate(-90,260,200)"/><rect x="255" y="205" width="10" height="10" transform="rotate(0,260,210)"/><rect x="255" y="215" width="10" height="10" transform="rotate(0,260,220)"/><rect x="255" y="235" width="10" height="10" transform="rotate(0,260,240)"/><path d="M 255 255v 10h 5a 5 5, 0, 0, 0, 0 -10" transform="rotate(0,260,260)"/><rect x="265" y="85" width="10" height="10" transform="rotate(0,270,90)"/><rect x="265" y="115" width="10" height="10" transform="rotate(0,270,120)"/><rect x="265" y="125" width="10" height="10" transform="rotate(0,270,130)"/><rect x="265" y="135" width="10" height="10" transform="rotate(0,270,140)"/><path d="M 265 145v 10h 10v -5a 5 5, 0, 0, 0, -5 -5" transform="rotate(180,270,150)"/><path d="M 265 175v 10h 5a 5 5, 0, 0, 0, 0 -10" transform="rotate(0,270,180)"/><path d="M 265 195v 10h 10v -5a 5 5, 0, 0, 0, -5 -5" transform="rotate(0,270,200)"/><rect x="265" y="205" width="10" height="10" transform="rotate(0,270,210)"/><rect x="265" y="215" width="10" height="10" transform="rotate(0,270,220)"/><rect x="265" y="225" width="10" height="10" transform="rotate(0,270,230)"/><rect x="265" y="235" width="10" height="10" transform="rotate(0,270,240)"/><path d="M 265 245v 10h 10v -5a 5 5, 0, 0, 0, -5 -5" transform="rotate(180,270,250)"/><path d="M 265 275v 10h 5a 5 5, 0, 0, 0, 0 -10" transform="rotate(180,270,280)"/><path d="M 275 85v 10h 10v -5a 5 5, 0, 0, 0, -5 -5" transform="rotate(0,280,90)"/><rect x="275" y="95" width="10" height="10" transform="rotate(0,280,100)"/><rect x="275" y="105" width="10" height="10" transform="rotate(0,280,110)"/><rect x="275" y="115" width="10" height="10" transform="rotate(0,280,120)"/><rect x="275" y="145" width="10" height="10" transform="rotate(0,280,150)"/><circle cx="280" cy="170" r="5" transform="rotate(0,280,170)"/><circle cx="280" cy="190" r="5" transform="rotate(0,280,190)"/><path d="M 275 205v 10h 5a 5 5, 0, 0, 0, 0 -10" transform="rotate(0,280,210)"/><rect x="275" y="245" width="10" height="10" transform="rotate(0,280,250)"/><path d="M 275 255v 10h 10v -5a 5 5, 0, 0, 0, -5 -5" transform="rotate(180,280,260)"/><path d="M 275 275v 10h 5a 5 5, 0, 0, 0, 0 -10" transform="rotate(0,280,280)"/><path d="M 285 105v 10h 10v -5a 5 5, 0, 0, 0, -5 -5" transform="rotate(0,290,110)"/><path d="M 285 115v 10h 10v -5a 5 5, 0, 0, 0, -5 -5" transform="rotate(90,290,120)"/><path d="M 285 145v 10h 5a 5 5, 0, 0, 0, 0 -10" transform="rotate(0,290,150)"/><circle cx="290" cy="180" r="5" transform="rotate(0,290,180)"/><circle cx="290" cy="200" r="5" transform="rotate(0,290,200)"/><circle cx="290" cy="230" r="5" transform="rotate(0,290,230)"/><path d="M 285 245v 10h 10v -5a 5 5, 0, 0, 0, -5 -5" transform="rotate(0,290,250)"/><path d="M 285 255v 10h 10v -5a 5 5, 0, 0, 0, -5 -5" transform="rotate(90,290,260)"/></g><g class="corners-square-color-0-0"><path d="M 5 5v 10h 10v -5a 5 5, 0, 0, 0, -5 -5" transform="rotate(-90,10,10)"/><rect x="5" y="15" width="10" height="10" transform="rotate(0,10,20)"/><rect x="5" y="25" width="10" height="10" transform="rotate(0,10,30)"/><rect x="5" y="35" width="10" height="10" transform="rotate(0,10,40)"/><rect x="5" y="45" width="10" height="10" transform="rotate(0,10,50)"/><rect x="5" y="55" width="10" height="10" transform="rotate(0,10,60)"/><path d="M 5 65v 10h 10v -5a 5 5, 0, 0, 0, -5 -5" transform="rotate(180,10,70)"/><rect x="15" y="5" width="10" height="10" transform="rotate(0,20,10)"/><rect x="15" y="65" width="10" height="10" transform="rotate(0,20,70)"/><rect x="25" y="5" width="10" height="10" transform="rotate(0,30,10)"/><rect x="25" y="65" width="10" height="10" transform="rotate(0,30,70)"/><rect x="35" y="5" width="10" height="10" transform="rotate(0,40,10)"/><rect x="35" y="65" width="10" height="10" transform="rotate(0,40,70)"/><rect x="45" y="5" width="10" height="10" transform="rotate(0,50,10)"/><rect x="45" y="65" width="10" height="10" transform="rotate(0,50,70)"/><rect x="55" y="5" width="10" height="10" transform="rotate(0,60,10)"/><rect x="55" y="65" width="10" height="10" transform="rotate(0,60,70)"/><path d="M 65 5v 10h 10v -5a 5 5, 0, 0, 0, -5 -5" transform="rotate(0,70,10)"/><rect x="65" y="15" width="10" height="10" transform="rotate(0,70,20)"/><rect x="65" y="25" width="10" height="10" transform="rotate(0,70,30)"/><rect x="65" y="35" width="10" height="10" transform="rotate(0,70,40)"/><rect x="65" y="45" width="10" height="10" transform="rotate(0,70,50)"/><rect x="65" y="55" width="10" height="10" transform="rotate(0,70,60)"/><path d="M 65 65v 10h 10v -5a 5 5, 0, 0, 0, -5 -5" transform="rotate(90,70,70)"/></g><g class="corners-dot-color-0-0"><path d="M 25 25v 10h 10v -5a 5 5, 0, 0, 0, -5 -5" transform="rotate(-90,30,30)"/><rect x="25" y="35" width="10" height="10" transform="rotate(0,30,40)"/><path d="M 25 45v 10h 10v -5a 5 5, 0, 0, 0, -5 -5" transform="rotate(180,30,50)"/><rect x="35" y="25" width="10" height="10" transform="rotate(0,40,30)"/><rect x="35" y="35" width="10" height="10" transform="rotate(0,40,40)"/><rect x="35" y="45" width="10" height="10" transform="rotate(0,40,50)"/><path d="M 45 25v 10h 10v -5a 5 5, 0, 0, 0, -5 -5" transform="rotate(0,50,30)"/><rect x="45" y="35" width="10" height="10" transform="rotate(0,50,40)"/><path d="M 45 45v 10h 10v -5a 5 5, 0, 0, 0, -5 -5" transform="rotate(90,50,50)"/></g><g class="corners-square-color-1-0"><path d="M 225 5v 10h 10v -5a 5 5, 0, 0, 0, -5 -5" transform="rotate(-90,230,10)"/><rect x="225" y="15" width="10" height="10" transform="rotate(0,230,20)"/><rect x="225" y="25" width="10" height="10" transform="rotate(0,230,30)"/><rect x="225" y="35" width="10" height="10" transform="rotate(0,230,40)"/><rect x="225" y="45" width="10" height="10" transform="rotate(0,230,50)"/><rect x="225" y="55" width="10" height="10" transform="rotate(0,230,60)"/><path d="M 225 65v 10h 10v -5a 5 5, 0, 0, 0, -5 -5" transform="rotate(180,230,70)"/><rect x="235" y="5" width="10" height="10" transform="rotate(0,240,10)"/><rect x="235" y="65" width="10" height="10" transform="rotate(0,240,70)"/><rect x="245" y="5" width="10" height="10" transform="rotate(0,250,10)"/><rect x="245" y="65" width="10" height="10" transform="rotate(0,250,70)"/><rect x="255" y="5" width="10" height="10" transform="rotate(0,260,10)"/><rect x="255" y="65" width="10" height="10" transform="rotate(0,260,70)"/><rect x="265" y="5" width="10" height="10" transform="rotate(0,270,10)"/><rect x="265" y="65" width="10" height="10" transform="rotate(0,270,70)"/><rect x="275" y="5" width="10" height="10" transform="rotate(0,280,10)"/><rect x="275" y="65" width="10" height="10" transform="rotate(0,280,70)"/><path d="M 285 5v 10h 10v -5a 5 5, 0, 0, 0, -5 -5" transform="rotate(0,290,10)"/><rect x="285" y="15" width="10" height="10" transform="rotate(0,290,20)"/><rect x="285" y="25" width="10" height="10" transform="rotate(0,290,30)"/><rect x="285" y="35" width="10" height="10" transform="rotate(0,290,40)"/><rect x="285" y="45" width="10" height="10" transform="rotate(0,290,50)"/><rect x="285" y="55" width="10" height="10" transform="rotate(0,290,60)"/><path d="M 285 65v 10h 10v -5a 5 5, 0, 0, 0, -5 -5" transform="rotate(90,290,70)"/></g><g class="corners-dot-color-1-0"><path d="M 245 25v 10h 10v -5a 5 5, 0, 0, 0, -5 -5" transform="rotate(-90,250,30)"/><rect x="245" y="35" width="10" height="10" transform="rotate(0,250,40)"/><path d="M 245 45v 10h 10v -5a 5 5, 0, 0, 0, -5 -5" transform="rotate(180,250,50)"/><rect x="255" y="25" width="10" height="10" transform="rotate(0,260,30)"/><rect x="255" y="35" width="10" height="10" transform="rotate(0,260,40)"/><rect x="255" y="45" width="10" height="10" transform="rotate(0,260,50)"/><path d="M 265 25v 10h 10v -5a 5 5, 0, 0, 0, -5 -5" transform="rotate(0,270,30)"/><rect x="265" y="35" width="10" height="10" transform="rotate(0,270,40)"/><path d="M 265 45v 10h 10v -5a 5 5, 0, 0, 0, -5 -5" transform="rotate(90,270,50)"/></g><g class="corners-square-color-0-1"><path d="M 5 225v 10h 10v -5a 5 5, 0, 0, 0, -5 -5" transform="rotate(-90,10,230)"/><rect x="5" y="235" width="10" height="10" transform="rotate(0,10,240)"/><rect x="5" y="245" width="10" height="10" transform="rotate(0,10,250)"/><rect x="5" y="255" width="10" height="10" transform="rotate(0,10,260)"/><rect x="5" y="265" width="10" height="10" transform="rotate(0,10,270)"/><rect x="5" y="275" width="10" height="10" transform="rotate(0,10,280)"/><path d="M 5 285v 10h 10v -5a 5 5, 0, 0, 0, -5 -5" transform="rotate(180,10,290)"/><rect x="15" y="225" width="10" height="10" transform="rotate(0,20,230)"/><rect x="15" y="285" width="10" height="10" transform="rotate(0,20,290)"/><rect x="25" y="225" width="10" height="10" transform="rotate(0,30,230)"/><rect x="25" y="285" width="10" height="10" transform="rotate(0,30,290)"/><rect x="35" y="225" width="10" height="10" transform="rotate(0,40,230)"/><rect x="35" y="285" width="10" height="10" transform="rotate(0,40,290)"/><rect x="45" y="225" width="10" height="10" transform="rotate(0,50,230)"/><rect x="45" y="285" width="10" height="10" transform="rotate(0,50,290)"/><rect x="55" y="225" width="10" height="10" transform="rotate(0,60,230)"/><rect x="55" y="285" width="10" height="10" transform="rotate(0,60,290)"/><path d="M 65 225v 10h 10v -5a 5 5, 0, 0, 0, -5 -5" transform="rotate(0,70,230)"/><rect x="65" y="235" width="10" height="10" transform="rotate(0,70,240)"/><rect x="65" y="245" width="10" height="10" transform="rotate(0,70,250)"/><rect x="65" y="255" width="10" height="10" transform="rotate(0,70,260)"/><rect x="65" y="265" width="10" height="10" transform="rotate(0,70,270)"/><rect x="65" y="275" width="10" height="10" transform="rotate(0,70,280)"/><path d="M 65 285v 10h 10v -5a 5 5, 0, 0, 0, -5 -5" transform="rotate(90,70,290)"/></g><g class="corners-dot-color-0-1"><path d="M 25 245v 10h 10v -5a 5 5, 0, 0, 0, -5 -5" transform="rotate(-90,30,250)"/><rect x="25" y="255" width="10" height="10" transform="rotate(0,30,260)"/><path d="M 25 265v 10h 10v -5a 5 5, 0, 0, 0, -5 -5" transform="rotate(180,30,270)"/><rect x="35" y="245" width="10" height="10" transform="rotate(0,40,250)"/><rect x="35" y="255" width="10" height="10" transform="rotate(0,40,260)"/><rect x="35" y="265" width="10" height="10" transform="rotate(0,40,270)"/><path d="M 45 245v 10h 10v -5a 5 5, 0, 0, 0, -5 -5" transform="rotate(0,50,250)"/><rect x="45" y="255" width="10" height="10" transform="rotate(0,50,260)"/><path d="M 45 265v 10h 10v -5a 5 5, 0, 0, 0, -5 -5" transform="rotate(90,50,270)"/></g></svg></g></svg></svg>